<?xml version="1.0" encoding="utf-8"?>
<!-- Generator: Adobe Illustrator 16.0.0, SVG Export Plug-In . SVG Version: 6.00 Build 0)  -->
<!DOCTYPE svg PUBLIC "-//W3C//DTD SVG 1.1//EN" "http://www.w3.org/Graphics/SVG/1.1/DTD/svg11.dtd">
<svg version="1.1" id="Layer_1" xmlns="http://www.w3.org/2000/svg" xmlns:xlink="http://www.w3.org/1999/xlink" x="0px" y="0px"
	 width="595.28px" height="256px" viewBox="0 0 595.28 256" enable-background="new 0 0 595.28 256" xml:space="preserve">
<g>
	<path fill="#FFFFFF" d="M175.795,156.998v85.621h-34.974v-81.147c0-26.581-13.151-39.456-35.538-39.456
		c-24.903,0-41.691,15.114-41.691,45.053v75.551H28.616V93.2h33.298v19.31c11.473-13.713,29.662-20.991,51.484-20.991
		C149.213,91.519,175.795,111.945,175.795,156.998z"/>
	<path fill="#FFFFFF" d="M361.57,179.101H244.327c4.195,21.828,22.384,35.813,48.41,35.813c16.786,0,29.935-5.311,40.569-16.226
		l18.751,21.543c-13.439,15.953-34.419,24.342-60.16,24.342c-50.089,0-82.547-32.178-82.547-76.667
		c0-44.488,32.737-76.388,77.226-76.388c43.653,0,75.552,30.497,75.552,77.226C362.128,171.549,361.849,175.743,361.57,179.101z
		 M244.048,155.876h84.778c-2.792-21.544-19.303-36.374-42.25-36.374C263.917,119.502,247.405,134.053,244.048,155.876z"/>
	<path fill="#FFFFFF" d="M485.499,234.503c-8.389,6.714-20.979,10.07-33.574,10.07c-32.737,0-51.488-17.348-51.488-50.364v-71.908
		h-24.621V94.323h99.619v27.978h-40.021v71.063c0,14.558,7.278,22.388,20.712,22.388c7.272,0,14.271-1.955,19.589-6.148
		L485.499,234.503z"/>
	<rect x="514.308" y="93.2" fill="#FFFFFF" width="34.983" height="149.419"/>
	<rect x="28.623" y="34.664" fill="#FFFFFF" width="447.104" height="34.983"/>
	<circle fill="#EC4C36" cx="531.799" cy="46.285" r="34.865"/>
</g>
</svg>
